# xmcd
# 
# Track frame offsets:
#     150
#     18470
#     64730
#     90920
#     130245
#     148097
#     183691
# 
# Disc length: 3612
# 
# Revision: 2
# Processed by: cddbd v1.5.2PL0 Copyright (c) Steve Scherf et al.
# Submitted via: BonkEnc v1.0.8
# 
DISCID=5e0e1a07
DTITLE=Albert King - Live Wire - Blues Power
DYEAR=1968
DGENRE=Blues
TTITLE0=Watermelon Man
TTITLE1=Blues Power
TTITLE2=Night Stomp
TTITLE3=Blues At Sunrise
TTITLE4=Please Love Me
TTITLE5=Look Out
TTITLE6=Multimedia-Track
EXTD=© 1979/2001\nLabel: Stax Records\nSCD24 4128-2\n24 BIT Remastered
EXTT0=
EXTT1=
EXTT2=
EXTT3=
EXTT4=
EXTT5=
EXTT6=
PLAYORDER=
